<svg width="100" height="100" viewBox="0 0 100 100" fill="none" xmlns="http://www.w3.org/2000/svg">
<rect width="100" height="100" rx="8" fill="white"/>
<path d="M36.8831 35L37.1529 44.1754H36.0735C35.9235 42.6462 35.6387 41.3718 35.2189 40.3523C34.7991 39.3028 34.2444 38.4333 33.5547 37.7436C32.8951 37.024 32.1754 36.5592 31.3958 36.3493C30.6462 36.1394 29.4918 36.0345 27.9325 36.0345H21.6357V49.033H23.7946C25.8636 49.033 27.2729 48.6732 28.0225 47.9535C28.7721 47.2339 29.1469 45.8546 29.1469 43.8156V42.6912H30.2264V56.994H29.1469L29.1919 55.1949C29.1919 53.2459 28.8171 51.9415 28.0675 51.2819C27.3478 50.5922 25.9235 50.2474 23.7946 50.2474H21.6357V63.9655H27.7076C29.4768 63.9655 30.8411 63.8306 31.8006 63.5607C32.7901 63.2909 33.6897 62.7661 34.4993 61.9865C35.3088 61.2069 35.9385 60.2624 36.3883 59.1529C36.8381 58.0435 37.1679 56.5892 37.3778 54.7901H38.5472L38.1424 65H13V64.1004H16.958V35.8996H13V35H36.8831Z" fill="black"/>
<path d="M58.7681 54.7901H41.3618V52.5412H58.7681V54.7901Z" fill="black"/>
<path d="M86.682 54.0705V65H61.3596V64.1004H65.1827V35.8996H61.3596V35H73.9083V35.8996H69.9503V63.9655H76.1572C77.9263 63.9655 79.2757 63.8156 80.2052 63.5157C81.1647 63.2159 82.0043 62.6762 82.7239 61.8966C83.4736 61.1169 84.0583 60.1424 84.4781 58.973C84.9278 57.7736 85.3026 56.1394 85.6025 54.0705H86.682Z" fill="black"/>
</svg>
